<svg xmlns="http://www.w3.org/2000/svg" xmlns:xlink="http://www.w3.org/1999/xlink"><defs>
<filter id="filter0_d" x="0.444092" y="0.609375" width="24.2339" height="31.0406" filterUnits="userSpaceOnUse" color-interpolation-filters="sRGB">
<feFlood flood-opacity="0" result="BackgroundImageFix"/>
<feColorMatrix in="SourceAlpha" type="matrix" values="0 0 0 0 0 0 0 0 0 0 0 0 0 0 0 0 0 0 127 0"/>
<feOffset dy="4"/>
<feGaussianBlur stdDeviation="2"/>
<feColorMatrix type="matrix" values="0 0 0 0 0 0 0 0 0 0 0 0 0 0 0 0 0 0 0.25 0"/>
<feBlend mode="normal" in2="BackgroundImageFix" result="effect1_dropShadow"/>
<feBlend mode="normal" in="SourceGraphic" in2="effect1_dropShadow" result="shape"/>
</filter>
</defs><symbol id="icon-mail" viewBox="0 0 26 20">
<path d="M24.2273 0H1.77273C0.768182 0 0 0.764706 0 1.76471V18.2353C0 19.2353 0.768182 20 1.77273 20H24.2273C25.2318 20 26 19.2353 26 18.2353V1.76471C26 0.764706 25.2318 0 24.2273 0ZM24.2273 17L19.5591 12.3529C19.2045 12 18.6727 12 18.3182 12.3529C17.9636 12.7059 17.9636 13.2353 18.3182 13.5882L22.9864 18.2353H3.01362L7.68182 13.5882C8.03636 13.2353 8.03636 12.7059 7.68182 12.3529C7.32727 12 6.79547 12 6.44092 12.3529L1.77273 17V5.70585L12.4091 13.7059C12.5864 13.8236 12.7636 13.8823 12.9409 13.8823C13.1182 13.8823 13.2954 13.8236 13.4727 13.7059L24.2273 5.70585V17ZM24.2273 1.76471V3.4706L12.9409 11.8235L1.77273 3.4706V1.76471H24.2273Z" fill="#0AD9C6"/>
</symbol><symbol id="icon-Menu" viewBox="0 0 30 30">
<path fill-rule="evenodd" clip-rule="evenodd" d="M3.75 21H26.25V20H3.75V21ZM3.75 14.75H26.25V13.75H3.75V14.75ZM3.75 7.5V8.5H26.25V7.5H3.75Z" fill="black"/>
</symbol><symbol id="icon-phone" viewBox="0 0 25 32">
<g filter="url(#filter0_d)">
<path d="M5.45641 6.62432C5.37185 5.42623 5.63759 4.24606 6.3412 3.29684C6.9512 2.43632 7.74541 1.96636 8.70269 1.69172C9.50898 1.4525 10.0375 1.74561 10.27 2.64204C10.6022 3.98224 11.0763 5.3225 11.2484 6.73361C11.3028 7.35485 10.9011 8.23322 10.4663 8.6856C9.37614 9.75888 9.60263 10.5399 10.4301 12.1643C10.6867 12.6881 11.0944 13.5934 11.8886 14.7919C12.7161 15.9992 13.1539 16.6472 14.2169 16.0975C15.3977 15.5035 16.2583 15.8855 17.1492 16.8444C17.7531 17.5369 18.4175 18.1318 19.0215 18.8243C19.8942 19.8542 19.8549 20.5641 19.1725 21.2915C17.9434 22.6309 15.9141 23.0736 14.4042 22.1766C13.5707 21.6881 12.7402 21.0487 12.0789 20.303C9.16477 16.9825 7.06297 13.1212 5.79765 8.76321C5.59532 8.02654 5.50171 7.28104 5.45641 6.62432Z" stroke="#0AD9C6" stroke-width="2" stroke-miterlimit="10"/>
</g>

</symbol><symbol id="icon-Play" viewBox="0 0 65 65">
<path fill-rule="evenodd" clip-rule="evenodd" d="M32.5 65C50.4493 65 65 50.4493 65 32.5C65 14.5507 50.4493 0 32.5 0C14.5507 0 0 14.5507 0 32.5C0 50.4493 14.5507 65 32.5 65Z" fill="#0AD9C6"/>
<path fill-rule="evenodd" clip-rule="evenodd" d="M28.6001 23.3999L41.6001 32.4999L28.6001 41.5999V23.3999Z" fill="#070707"/>
</symbol></svg>