<svg width="25" height="32" viewBox="0 0 25 32" fill="none" xmlns="http://www.w3.org/2000/svg">
<g filter="url(#filter0_d)">
<path d="M5.45641 6.62432C5.37185 5.42623 5.63759 4.24606 6.3412 3.29684C6.9512 2.43632 7.74541 1.96636 8.70269 1.69172C9.50898 1.4525 10.0375 1.74561 10.27 2.64204C10.6022 3.98224 11.0763 5.3225 11.2484 6.73361C11.3028 7.35485 10.9011 8.23322 10.4663 8.6856C9.37614 9.75888 9.60263 10.5399 10.4301 12.1643C10.6867 12.6881 11.0944 13.5934 11.8886 14.7919C12.7161 15.9992 13.1539 16.6472 14.2169 16.0975C15.3977 15.5035 16.2583 15.8855 17.1492 16.8444C17.7531 17.5369 18.4175 18.1318 19.0215 18.8243C19.8942 19.8542 19.8549 20.5641 19.1725 21.2915C17.9434 22.6309 15.9141 23.0736 14.4042 22.1766C13.5707 21.6881 12.7402 21.0487 12.0789 20.303C9.16477 16.9825 7.06297 13.1212 5.79765 8.76321C5.59532 8.02654 5.50171 7.28104 5.45641 6.62432Z" stroke="#0AD9C6" stroke-width="2" stroke-miterlimit="10"/>
</g>
<defs>
<filter id="filter0_d" x="0.444092" y="0.609375" width="24.2339" height="31.0406" filterUnits="userSpaceOnUse" color-interpolation-filters="sRGB">
<feFlood flood-opacity="0" result="BackgroundImageFix"/>
<feColorMatrix in="SourceAlpha" type="matrix" values="0 0 0 0 0 0 0 0 0 0 0 0 0 0 0 0 0 0 127 0"/>
<feOffset dy="4"/>
<feGaussianBlur stdDeviation="2"/>
<feColorMatrix type="matrix" values="0 0 0 0 0 0 0 0 0 0 0 0 0 0 0 0 0 0 0.25 0"/>
<feBlend mode="normal" in2="BackgroundImageFix" result="effect1_dropShadow"/>
<feBlend mode="normal" in="SourceGraphic" in2="effect1_dropShadow" result="shape"/>
</filter>
</defs>
</svg>
